<?xml version="1.0" encoding="utf-8"?>
<!-- Generator: Adobe Illustrator 27.3.1, SVG Export Plug-In . SVG Version: 6.00 Build 0)  -->
<svg version="1.1" id="Layer_1" xmlns="http://www.w3.org/2000/svg" xmlns:xlink="http://www.w3.org/1999/xlink" x="0px" y="0px"
	 viewBox="0 0 208.32 238.99" style="enable-background:new 0 0 208.32 238.99;" xml:space="preserve">
<g>
	<path d="M104.16,126.99c-16.4,0-29.74,13.34-29.74,29.74s13.34,29.74,29.74,29.74s29.75-13.34,29.75-29.74
		S120.56,126.99,104.16,126.99z M104.16,171.48c-8.13,0-14.74-6.61-14.74-14.74s6.61-14.74,14.74-14.74
		c8.13,0,14.75,6.61,14.75,14.74S112.29,171.48,104.16,171.48z"/>
	<path d="M208.32,57.82C208.32,25.94,182.38,0,150.5,0H57.82C25.94,0,0,25.94,0,57.82c0,13.97,6.46,28,12.7,41.57
		c5.71,12.42,11.61,25.26,11.8,36.82c-1.69,6.56-2.59,13.44-2.59,20.52c0,45.35,36.9,82.25,82.25,82.25s82.25-36.9,82.25-82.25
		c0-7.08-0.9-13.96-2.59-20.52c0.19-11.56,6.09-24.4,11.8-36.82C201.87,85.82,208.32,71.79,208.32,57.82z M104.16,223.99
		c-37.08,0-67.25-30.17-67.25-67.25c0-37.08,30.17-67.25,67.25-67.25s67.25,30.17,67.25,67.25
		C171.41,193.82,141.24,223.99,104.16,223.99z M59.34,84.64L50.01,61.5c-1.52-3.78-0.28-6.89,1.03-8.83
		c2.53-3.75,7.34-6.08,12.55-6.08h82.12c5.21,0,10.02,2.33,12.55,6.08c1.31,1.94,2.55,5.05,1.03,8.83l-9.32,23.14
		c-0.39,0.96-1.01,1.87-1.81,2.67c-12.74-8.11-27.83-12.82-44.02-12.82c-15.92,0-30.79,4.56-43.39,12.42
		C60.15,86.21,59.66,85.45,59.34,84.64z M182,93.12c-2.97,6.45-5.97,13-8.37,19.65c-3.8-5.99-8.36-11.46-13.53-16.27
		c1.61-1.89,2.9-4.01,3.81-6.26l9.32-23.14c3.06-7.6,2.15-15.92-2.51-22.83c-5.36-7.94-14.71-12.69-24.99-12.69H63.6
		c-10.28,0-19.62,4.74-24.99,12.69c-4.66,6.9-5.58,15.22-2.51,22.83l9.32,23.14c0.83,2.07,1.96,3.98,3.36,5.73
		c-5.41,4.94-10.15,10.59-14.09,16.8c-2.4-6.65-5.4-13.2-8.37-19.65C20.5,80.46,15,68.5,15,57.82C15,34.21,34.21,15,57.82,15h92.68
		c23.61,0,42.82,19.21,42.82,42.82C193.32,68.5,187.82,80.46,182,93.12z"/>
</g>
</svg>
